<?xml version="1.0" encoding="iso-8859-1"?>
<!-- Uploaded to: SVG Repo, www.svgrepo.com, Generator: SVG Repo Mixer Tools -->
<svg height="800px" width="800px" version="1.1" id="Layer_1" xmlns="http://www.w3.org/2000/svg" xmlns:xlink="http://www.w3.org/1999/xlink" 
	 viewBox="0 0 512.001 512.001" xml:space="preserve">
<path style="fill:#D2AA82;" d="M51.778,62.966v425.031c0,8.8-7.2,15.999-15.999,15.999l0,0c-8.8,0-15.999-7.2-15.999-15.999V24.003
	c-0.001-8.8,7.199-15.999,15.999-15.999l0,0c8.8,0,15.999,7.2,15.999,15.999v7.991V62.966z"/>
<path style="fill:#FF6464;" d="M51.778,344.079c149.781,0,142.5,23.899,292.154,23.899c58.87,0,98.033-7.382,130.178-16.086
	c14.314-3.877,21.921-18.866,16.234-32.076l-54.58-126.797l46.998-116.378c7.203-17.836-9.294-36.202-28.675-31.857
	c-28.407,6.37-62.944,11.117-110.155,11.117c-149.654,0-142.373-23.899-292.154-23.899"/>
<path d="M497.696,316.651L444.436,192.92l45.747-113.282c4.41-10.92,2.457-22.842-5.222-31.889
	c-7.957-9.374-20.456-13.502-32.626-10.774c-33.237,7.453-67.683,10.923-108.403,10.923c-74.144,0-110.003-6.016-144.682-11.836
	c-34.076-5.717-69.276-11.622-139.469-12.039v-0.021C59.781,10.767,49.013,0,35.778,0S11.775,10.767,11.775,24.003v463.995
	c0,13.235,10.767,24.004,24.003,24.004s24.004-10.768,24.004-24.004V352.108c68.854,0.417,103.392,6.207,136.821,11.817
	c35.325,5.926,71.853,12.056,147.33,12.056c63.669,0,104.132-8.746,132.27-16.365c9.236-2.501,16.864-8.764,20.93-17.183
	C501.051,334.32,501.256,324.923,497.696,316.651z M482.72,335.471c-2.047,4.238-5.947,7.407-10.7,8.694
	c-27.181,7.36-66.304,15.808-128.086,15.808c-74.144,0-110.003-6.016-144.682-11.836c-34.076-5.717-69.276-11.622-139.469-12.039
	V62.966c0-4.42-3.583-8.003-8.003-8.003s-8.003,3.583-8.003,8.003v425.031c0,4.41-3.587,7.997-7.997,7.997
	c-4.409,0-7.996-3.587-7.996-7.997V24.003c0-4.409,3.587-7.996,7.996-7.996c4.41,0,7.997,3.587,7.997,7.996v7.991
	c0,0.002,0,0.003,0,0.005c0,0.002,0,0.003,0,0.005c0,4.42,3.583,8.003,8.003,8.003c74.24,0,110.123,6.02,144.824,11.843
	c35.325,5.926,71.853,12.056,147.33,12.056c41.93,0,77.489-3.594,111.906-11.312c6.438-1.442,12.765,0.617,16.921,5.513
	c3.815,4.494,4.756,10.157,2.583,15.538l-46.998,116.378c-0.799,1.981-0.774,4.199,0.07,6.161l54.579,126.797
	C484.743,327.046,484.646,331.482,482.72,335.471z M435.528,86.741l4.383-10.851c1.655-4.099,6.322-6.079,10.417-4.423
	c4.099,1.656,6.078,6.32,4.423,10.418l-4.383,10.851c-1.258,3.116-4.257,5.008-7.423,5.008c-0.998,0-2.013-0.188-2.995-0.584
	C435.852,95.503,433.872,90.839,435.528,86.741z M439.394,119.91l-20.008,51.02c-1.237,3.155-4.257,5.083-7.453,5.083
	c-0.972,0-1.96-0.178-2.92-0.554c-4.115-1.614-6.142-6.258-4.529-10.373l20.008-51.02c1.614-4.115,6.257-6.143,10.373-4.529
	C438.98,111.151,441.008,115.795,439.394,119.91z"/>
</svg>