<svg xmlns="http://www.w3.org/2000/svg" version="1.2" viewBox="525.8 207.5 448 442.3">
	<title>logo 2-ai</title>
	<defs>
		<linearGradient id="g1" x1="806.5" y1="226.3" x2="806.5" y2="629.6" gradientUnits="userSpaceOnUse">
			<stop offset="0" stop-color="#30c1ce"/>
			<stop offset="1" stop-color="#e4c343"/>
		</linearGradient>
		<linearGradient id="g2" x1="975.8" y1="226.3" x2="975.8" y2="629.6" gradientUnits="userSpaceOnUse">
			<stop offset="0" stop-color="#30c1ce"/>
			<stop offset="1" stop-color="#e4c343"/>
		</linearGradient>
		<linearGradient id="g3" x1="729.4" y1="226.3" x2="729.4" y2="629.6" gradientUnits="userSpaceOnUse">
			<stop offset="0" stop-color="#30c1ce"/>
			<stop offset="1" stop-color="#e4c343"/>
		</linearGradient>
	</defs>
	<style>
		.s0 { fill: url(#g1) } 
		.s1 { fill: url(#g2) } 
		.s2 { fill: url(#g3) } 
	</style>
	<g id="Layer 1">
		<g id="&lt;Group&gt;">
			<path id="&lt;Path&gt;" class="s0" d="m788.3 439.7c8.9 0 16.2 7.2 16.2 16.2 0 8.9-7.3 16.1-16.2 16.1-8.9 0-16.2-7.2-16.2-16.1 0-9 7.3-16.2 16.2-16.2z"/>
			<path id="&lt;Path&gt;" class="s1" d="m916.7 499.9c-61.8 87.2-152.2 141.2-158 144.6l-9 5.3-9-5.3c-5.7-3.4-95.7-57.6-157.4-144.6h72.4c8.9 9.9 18 19.3 27.2 28v-30.3c-31.4-32.8-61.7-74.2-73.7-120.2 37.2-14.3 88.9-37.7 140.5-72.5q14.1 9.5 28 17.9v97.2c-15.5 4.6-26.8 18.9-26.8 35.9 0 20.6 16.8 37.4 37.4 37.4 20.7 0 37.4-16.8 37.4-37.4 0-17-11.3-31.3-26.7-35.9v-109.4c-4.9-2.8-9.8-5.7-14.6-8.7-2.3-1.4-4.5-2.7-6.7-4.1q-11-6.9-21.9-14.5l-6-4.2-6.1 4.2c-56 38.8-112.9 63.5-150.7 77.5l-8.6 3.1 1.9 9c8 39 27.8 74.7 51.8 105.7h-68.8c-25.6-41.6-43.5-89.7-43.5-142.5v-13.6l13.1-3.5c1.1-0.3 109-30 199.8-102.6l11.1-8.9 11 8.9c90.9 72.7 198.9 103.2 200 103.5l13 3.6v13.5c0 52.5-17.8 100.3-43.1 141.6h-68.7c23.7-30.8 43.3-66.3 51.3-105.1l1.8-8.9-8.5-3.1c-24-9-55.7-22.4-89.9-41v24.1c27.4 14.2 52.9 25.3 73.7 33.4-21.2 81.7-100.6 148.9-140.5 178.4-8-5.9-17.6-13.4-28.1-22.2v-109c15.5-4.6 26.9-18.9 26.9-35.8 0-20.7-16.8-37.5-37.5-37.5-20.6 0-37.4 16.8-37.4 37.5 0 16.9 11.3 31.2 26.8 35.8v118.9c4.5 3.9 8.9 7.6 13.2 11.1q4.1 3.4 8 6.5c7.8 6.2 15.1 11.7 21.8 16.5l6.2 4.5 6.2-4.5c24.7-17.6 58.2-44.5 88.3-78.3z"/>
			<path id="&lt;Path&gt;" class="s2" d="m711.2 405.5c-8.9 0-16.2-7.2-16.2-16.1 0-9 7.3-16.2 16.2-16.2 8.9 0 16.2 7.2 16.2 16.2 0 8.9-7.3 16.1-16.2 16.1z"/>
		</g>
	</g>
</svg>